<svg width="141" height="51" viewBox="0 0 141 51" fill="none" xmlns="http://www.w3.org/2000/svg">
<path d="M36.912 49.128C34.5227 49.128 32.7093 48.36 31.472 46.824C30.2773 45.2453 29.4667 42.3227 29.04 38.056C28.784 35.8373 28.528 32.9573 28.272 29.416C25.2853 30.312 22.2773 31.2507 19.248 32.232L17.072 38.248C16.6453 39.4 16.3467 40.232 16.176 40.744C16.0053 41.2133 15.6853 41.9387 15.216 42.92C14.7893 43.9013 14.4053 44.6267 14.064 45.096C13.7653 45.5227 13.3173 46.0773 12.72 46.76C12.1653 47.4427 11.5893 47.9333 10.992 48.232C9.456 49 7.81333 49.384 6.064 49.384C4.31467 49.384 2.88533 48.7653 1.776 47.528C0.709333 46.248 0.176 44.6907 0.176 42.856C0.176 42.344 0.218667 41.8107 0.304 41.256C0.858667 37.16 5.06133 33.4267 12.912 30.056C15.1307 24.3813 18.8213 14.824 23.984 1.384C25.3493 0.615999 27.0773 0.231998 29.168 0.231998C29.6373 0.231998 30.0853 0.231998 30.512 0.231998C30.9387 0.231998 31.4507 0.231998 32.048 0.231998C32.688 0.231998 33.4773 0.359998 34.416 0.615997C34.4587 2.62133 35.44 15.0587 37.36 37.928C37.5307 39.848 37.7653 41.1067 38.064 41.704C38.3627 42.2587 38.8747 42.536 39.6 42.536C40.7947 42.536 42.3733 41.7253 44.336 40.104C46.3413 38.4827 48.1333 36.456 49.712 34.024L51.504 38.376L49.968 40.424C45.488 46.2267 41.136 49.128 36.912 49.128ZM26.736 11.368L21.168 26.92C24.1547 25.896 26.3733 25.1493 27.824 24.68L26.736 11.368ZM10.672 35.624C6.704 37.6293 4.72 39.592 4.72 41.512C4.72 42.8773 5.232 43.56 6.256 43.56C7.024 43.56 7.64267 43.0053 8.112 41.896C8.66667 40.7013 9.52 38.6107 10.672 35.624ZM91.4955 35.24L93.5435 38.376C91.4528 45.7147 87.1222 49.384 80.5515 49.384C79.0582 49.384 77.7568 49.1067 76.6475 48.552C75.5808 47.9973 74.7702 47.336 74.2155 46.568C73.6608 45.8 73.2128 44.8187 72.8715 43.624C72.4022 41.832 72.1462 39.464 72.1035 36.52C72.1035 33.576 71.7408 31.5493 71.0155 30.44C70.3328 29.3307 69.0102 28.712 67.0475 28.584L67.7515 23.144C67.8368 23.144 67.9008 23.144 67.9435 23.144C70.4182 23.144 72.4662 22.44 74.0875 21.032C75.8368 19.4533 76.7115 17.4267 76.7115 14.952C76.7115 12.4773 75.5382 10.3867 73.1915 8.68C70.8875 6.97333 67.9008 6.12 64.2315 6.12C59.4955 6.12 55.8475 7.29333 53.2875 9.64C51.9222 10.92 51.2395 12.456 51.2395 14.248C51.2395 16.5093 52.9675 17.8747 56.4235 18.344L55.5275 23.144C52.9248 23.016 50.6208 22.1413 48.6155 20.52C46.6102 18.8987 45.6075 16.808 45.6075 14.248C45.6075 9.768 47.4848 6.33333 51.2395 3.944C54.9942 1.512 59.7515 0.295998 65.5115 0.295998C69.2235 0.295998 72.4875 0.743998 75.3035 1.64C80.1248 3.26133 83.3248 6.07733 84.9035 10.088C85.4155 11.496 85.6715 12.648 85.6715 13.544C85.6715 14.3973 85.6715 14.9733 85.6715 15.272C85.5008 17.6187 84.6262 19.9227 83.0475 22.184C81.5115 24.4453 79.1862 26.0027 76.0715 26.856C77.9488 27.24 79.2288 28.0507 79.9115 29.288C80.5942 30.5253 80.9568 32.4027 80.9995 34.92C81.0422 39.2293 81.2342 41.8533 81.5755 42.792C81.9595 43.688 82.7275 44.136 83.8795 44.136C86.9942 44.136 89.5328 41.1707 91.4955 35.24ZM52.2635 49.384C50.0022 49.384 48.1888 48.7013 46.8235 47.336C45.4582 45.9707 44.7755 44.2853 44.7755 42.28C44.7755 37.0747 48.5942 32.7227 56.2315 29.224C57.7675 17.2773 58.5568 11.1547 58.5995 10.856C60.3915 9.704 62.4182 9.128 64.6795 9.128C65.6182 9.128 66.6848 9.256 67.8795 9.512L63.8475 36.84C62.5675 45.2027 58.7062 49.384 52.2635 49.384ZM49.5115 41.512C49.5115 42.8773 50.2368 43.56 51.6875 43.56C53.3942 43.56 54.4822 42.024 54.9515 38.952L55.5275 34.6C51.5168 36.9467 49.5115 39.2507 49.5115 41.512ZM108.435 41.32C109.459 40.296 110.696 39.784 112.147 39.784C113.597 39.784 114.835 40.296 115.859 41.32C116.883 42.344 117.395 43.5813 117.395 45.032C117.395 46.4827 116.883 47.72 115.859 48.744C114.835 49.7253 113.597 50.216 112.147 50.216C110.696 50.216 109.459 49.7253 108.435 48.744C107.453 47.72 106.963 46.4827 106.963 45.032C106.963 43.5813 107.453 42.344 108.435 41.32ZM131.685 41.32C132.709 40.296 133.946 39.784 135.397 39.784C136.847 39.784 138.085 40.296 139.109 41.32C140.133 42.344 140.645 43.5813 140.645 45.032C140.645 46.4827 140.133 47.72 139.109 48.744C138.085 49.7253 136.847 50.216 135.397 50.216C133.946 50.216 132.709 49.7253 131.685 48.744C130.703 47.72 130.213 46.4827 130.213 45.032C130.213 43.5813 130.703 42.344 131.685 41.32Z" fill="white"/>
</svg>
